# xmcd CD database file
#
# Track frame offsets:
#	150
#	16320
#	32221
#	48005
#	62667
#	79549
#	88737
#	102058
#	127564
#	148865
#	164563
#	176183
#
# Disc length: 2533 seconds
#
# Revision: 0
# Processed by: cddbd v1.5.1PL0 Copyright (c) Steve Scherf et al.
# Submitted via: CDex 1.40Release
#
DISCID=9309e30c
DTITLE=John P. Allen - The Canadian Violin
DYEAR=2005
DGENRE=Country
TTITLE0=Tumbling Tumbleweeds
TTITLE1=Makin' Whoopee
TTITLE2=The Golden Way
TTITLE3=The First Of June
TTITLE4=Autumn Ride
TTITLE5=Jemeson's Rig
TTITLE6=Summer Wages
TTITLE7=St. Anne's Reel (The Downtown Hoedown)
TTITLE8=Beauséjour Lament
TTITLE9=Hugo Brotter's Polka
TTITLE10=Side by Side
TTITLE11=Lace and Pretty Flowers
EXTD=YEAR: 2005 ID3G: 2
EXTT0=
EXTT1=
EXTT2=
EXTT3=
EXTT4=
EXTT5=
EXTT6=
EXTT7=
EXTT8=
EXTT9=
EXTT10=
EXTT11=
PLAYORDER=
